<svg width="70" height="58" viewBox="0 0 70 58" fill="none" xmlns="http://www.w3.org/2000/svg">
<path d="M35 28.0007V22.7499H5.05331L5.25076 5.25076H29.7509V19.2494L35 22.7499V6.99934L28.0007 0H6.99934L0 6.99934V20.9997L6.99934 28.0007H35Z" fill="#2E58A8"/>
<path d="M63.0007 40.2843H42.001L35 47.2836V57.3083H40.2508V45.5334H64.7509V57.3083H70V47.2836L63.0007 40.2843Z" fill="#2E58A8"/>
<path d="M8.57373 8.7496V12.2501H26.2503L22.7498 8.7496H8.57373Z" fill="#2E58A8"/>
<path d="M8.57373 15.7506V19.2495H22.7498L19.2493 15.7506H8.57373Z" fill="#2E58A8"/>
<path d="M56.212 35.6712L63.6363 28.2468V20.8225L56.212 13.3981H48.7876L41.3633 20.8225V28.2468L48.7876 35.6712H56.212ZM52.5006 17.1094L59.925 24.5338L52.5006 31.9581L45.0763 24.5338L52.5006 17.1094Z" fill="#2E58A8"/>
<path d="M10.9248 35.0337L3.50049 42.458V49.8824L10.9248 57.3068H18.3492L25.7735 49.8824V42.458L18.3492 35.0337H10.9248ZM14.6379 53.5954L7.2135 46.1711L14.6379 38.7467L22.0622 46.1711L14.6379 53.5954Z" fill="#2E58A8"/>
</svg>
