<svg width="70" height="56" viewBox="0 0 70 56" fill="none" xmlns="http://www.w3.org/2000/svg">
<path d="M63.0018 0H7.0002L0 7.00021V48.9994L7.0002 55.9996H62.9998L70 48.9994V7.00021L62.9998 0H63.0018ZM64.7518 50.7495H5.25015V5.25016H64.7499V50.7495H64.7518Z" fill="#2E58A8"/>
<path d="M36.2808 13.7105L28.9644 41.0158L33.7199 42.29L41.0364 14.9847L36.2808 13.7105Z" fill="#2E58A8"/>
<path d="M47.0762 13.768L43.4048 17.52L53.9051 28.0203L43.4048 38.5206L47.0762 42.2747L57.7516 31.5204V24.5202L47.0762 13.768Z" fill="#2E58A8"/>
<path d="M23.0835 13.768L26.7548 17.52L16.2545 28.0203L26.7548 38.5206L23.0835 42.2747L12.2505 31.5204V24.5202L23.0835 13.768Z" fill="#2E58A8"/>
</svg>
