<svg width="70" height="70" viewBox="0 0 70 70" fill="none" xmlns="http://www.w3.org/2000/svg">
<path d="M18.7995 55.1245H54.2496V49.8754H18.7995L26.6756 41.9992L23.0044 38.246L14.0005 47.25V49.8754V55.1245V57.7498L23.0044 66.7538L26.6756 63.0006L18.7995 55.1245Z" fill="#2E58A8"/>
<path d="M51.2006 14.8755H15.7505V20.1246H51.2006L43.3245 28.0007L46.9957 31.7539L55.9996 22.75V20.1246V14.8755V12.2502L46.9957 3.24623L43.3245 6.99939L51.2006 14.8755Z" fill="#2E58A8"/>
<path d="M0 6.99935V17.4992V28.0007L6.99934 35.0001H28.0007L35 28.0007V22.75H29.7493V29.7493H5.25076V17.4992V5.2491H29.7493V12.2501H35V6.99935L28.0007 0H6.99934L0 6.99935Z" fill="#2E58A8"/>
<path d="M35 47.2501H40.2508V40.2508H64.7509V64.751H40.2508V57.75H35V63.0007L41.9993 70H63.0007L70 63.0007V41.9993L63.0007 35H41.9993L35 41.9993V47.2501Z" fill="#2E58A8"/>
</svg>
