<svg width="219" height="32" viewBox="0 0 219 32" fill="none" xmlns="http://www.w3.org/2000/svg">
<path d="M4.69855 8.78014L9.14325 4.26866H32.5464V0H7.04782L0 7.1617V18.1318H28.0917V23.2199L23.652 27.7313H0.248864V32H25.7425L32.7953 24.8332V13.8681H4.69855V8.78014Z" fill="white"/>
<path d="M105.075 23.9886L101.387 27.7313H86.5845L82.8963 23.9886V0H78.1978V25.6071L84.489 32H103.482L109.774 25.6071V0H105.075V23.9886Z" fill="white"/>
<path d="M70.5529 5.37126L65.267 0H44.248L38.9372 5.39651H45.2285L46.3434 4.2636H63.1766L65.8593 6.9897V10.6666H43.5213L37.7676 16.5134V26.1482L43.5213 31.9949H64.8041L67.5118 29.2435L70.2194 31.9949H76.5107L70.5578 25.9459V5.3662L70.5529 5.37126ZM62.7037 27.7313H45.6068L42.4562 24.5298V18.1267L45.6018 14.9303H65.8494V24.5298L62.6987 27.7313H62.7037Z" fill="white"/>
<path d="M176.131 27.7313H160.154L155.709 23.2148V18.1318H175.737L182.626 11.132V0H158.058L151.01 7.1617V24.8332L158.058 31.9949H178.221L183.801 26.3252L180.655 23.1288L176.126 27.7313H176.131ZM160.154 4.26866H177.932V9.51348L173.647 13.8681H155.709V8.7852L160.154 4.26866Z" fill="white"/>
<path d="M209.603 0H188.504V32H193.203V4.26866H207.508L214.302 11.1674V32H219V9.54892L209.603 0Z" fill="white"/>
<path d="M149.388 0H143.355L130.853 13.8681H121.296V0H116.598V32H121.296V18.1318H131.146L143.649 32H149.682L135.108 15.8356L149.388 0Z" fill="white"/>
</svg>
