<svg width="1739" height="250" viewBox="0 0 1739 250" fill="none" xmlns="http://www.w3.org/2000/svg">
<path d="M37.3004 68.5948L72.5857 33.3489H258.377V0H55.9507L0 55.9508V141.655H223.012V181.405L187.767 216.651H1.97566V250H204.362L260.352 194.01V108.345H37.3004V68.5948Z" fill="#1F2B50"/>
<path d="M834.163 187.411L804.884 216.651H687.372L658.092 187.411V0H620.792V200.055L670.737 250H821.519L871.464 200.055V0H834.163V187.411Z" fill="#1F2B50"/>
<path d="M560.099 41.963L518.136 0H351.271L309.111 42.1603H359.055L367.906 33.3093H501.54L522.838 54.607V83.3332H345.502L299.825 129.011V204.283L345.502 249.96H514.461L535.956 228.465L557.451 249.96H607.396L560.138 202.702V41.9234L560.099 41.963ZM497.786 216.651H362.058L337.047 191.639V141.615L362.019 116.643H522.759V191.639L497.747 216.651H497.786Z" fill="#1F2B50"/>
<path d="M1398.25 216.651H1271.42L1236.13 181.366V141.655H1395.13L1449.82 86.9686V0H1254.78L1198.83 55.9508V194.01L1254.78 249.96H1414.85L1459.14 205.666L1434.17 180.694L1398.21 216.651H1398.25ZM1271.42 33.3489H1412.56V74.3241L1378.54 108.345H1236.13V68.6344L1271.42 33.3489Z" fill="#1F2B50"/>
<path d="M1663.98 0H1496.48V250H1533.78V33.3489H1647.34L1701.28 87.2449V250H1738.58V74.6009L1663.98 0Z" fill="#1F2B50"/>
<path d="M1185.95 0H1138.06L1038.8 108.345H962.936V0H925.636V250H962.936V141.655H1041.13L1140.39 250H1188.28L1072.59 123.716L1185.95 0Z" fill="#1F2B50"/>
</svg>
