<svg width="588" height="98" viewBox="0 0 588 98" fill="none" xmlns="http://www.w3.org/2000/svg">
<g opacity="0.75">
<path d="M14.5471 26.7666L28.3184 12.9954H100.821V0H21.8401L0 21.8012V55.2402H87.0111V70.7571L73.2786 84.5284H0.775846V97.5238H79.7569L101.597 75.6837V42.2448H14.5471V26.7666Z" fill="white"/>
<path d="M158.507 42.2445H122.12V55.2399H158.507V42.2445Z" fill="white"/>
<path d="M573.234 97.5626V34.0596L552.208 13.0341H508.528V97.5626H493.981V34.0596L472.956 13.0341H429.276V97.5626H414.729V0H479.434L493.981 14.5859V0H558.687L587.781 29.133V97.5626H573.234Z" fill="white"/>
<path d="M263.634 42.2836L273.332 32.5855V0H179.028V97.5238H262.781L280.625 79.6793V42.2448H263.634V42.2836ZM193.575 13.0341H258.746V27.6589L244.122 42.2836H193.575V13.0341ZM256.303 84.5284H193.575V55.279H266.039V74.7915L256.303 84.5284Z" fill="white"/>
<path d="M381.406 97.5627H400.879L365.229 61.9126H371.785L393.121 40.5769V0.0389404H299.321V97.5627H313.868V61.9126H345.756L381.406 97.5627ZM313.868 13.0343H378.574V35.6502L365.307 48.9172H313.868V13.0343Z" fill="white"/>
</g>
</svg>
