<svg width="506" height="98" viewBox="0 0 506 98" fill="none" xmlns="http://www.w3.org/2000/svg">
<g opacity="0.75">
<path d="M193.575 26.8055L207.347 13.0342H272.828V0H200.868L179.028 21.8788V75.7225L200.868 97.5626H272.828V84.5672H207.347L193.575 70.7959V26.8055Z" fill="white"/>
<path d="M483.78 0H404.023V97.5238H483.78L505.62 75.6837V21.8788L483.78 0ZM491.073 70.7959L477.302 84.5672H418.609V13.0342H477.302L491.073 26.8055V70.7959Z" fill="white"/>
<path d="M14.5471 26.7667L28.3184 12.9954H100.821V0H21.84L0 21.8401V55.279H87.0111V70.7571L73.2786 84.5284H0.775841V97.5238H79.7569L101.597 75.7225V42.2836H14.5471V26.7667Z" fill="white"/>
<path d="M158.504 42.2833H122.117V55.2787H158.504V42.2833Z" fill="white"/>
<path d="M367.326 0H304.715L285.241 19.4737V78.0501L304.715 97.5238H367.326L386.799 78.0501V19.5125L367.326 0ZM372.291 55.3178V73.1622L360.886 84.5672H311.271L299.866 73.1622V24.4391L311.271 13.0342H360.886L372.291 24.4391V55.279V55.3178Z" fill="white"/>
</g>
</svg>
