<svg width="582" height="98" viewBox="0 0 582 98" fill="none" xmlns="http://www.w3.org/2000/svg">
<g opacity="0.75">
<path d="M193.575 26.8056L207.347 13.0343H272.828V0.0389404H200.83L179.028 21.8402V75.7227L200.83 97.5627H272.828V84.5673H207.347L193.575 70.7961V26.8056Z" fill="white"/>
<path d="M14.5471 26.7667L28.3184 12.9954H100.821V0H21.84L0 21.8401V55.279H87.0111V70.7571L73.2398 84.5284H0.775849V97.5238H79.7569L101.558 75.6837V42.2448H14.5471V26.7667Z" fill="white"/>
<path d="M158.504 42.2445H122.117V55.2399H158.504V42.2445Z" fill="white"/>
<path d="M567.298 97.5627V34.0598L546.234 13.0343H502.592V97.5627H488.045V34.0598L466.981 13.0343H423.34V97.5627H408.754V0.0389404H473.459L488.045 14.586V0.0389404H552.712L581.845 29.1332V97.5627H567.298Z" fill="white"/>
<path d="M375.082 97.5627H394.556L358.906 61.9126H365.462L386.798 40.5769V0.0389404H292.998V97.5627H307.545V61.9126H339.432L375.082 97.5627ZM307.545 13.0343H372.251V35.6503L358.984 48.9172H307.545V13.0343Z" fill="white"/>
</g>
</svg>
