<svg width="591" height="98" viewBox="0 0 591 98" fill="none" xmlns="http://www.w3.org/2000/svg">
<g opacity="0.75">
<path d="M256.845 84.5672H207.346L193.575 70.7959V55.279H255.604L276.94 33.9432V0H200.829L178.989 21.8401V75.7225L200.829 97.5626H263.285L280.586 80.2612L270.849 70.5244L256.807 84.5672H256.845ZM207.346 13.0342H262.393V29.0167L249.126 42.2836H193.575V26.7667L207.346 12.9954V13.0342Z" fill="white"/>
<path d="M14.5859 26.7667L28.3184 13.0342H100.821V0H21.8401L0 21.8401V55.279H87.0499V70.7959L73.2786 84.5672H0.775846V97.5626H79.7569L101.597 75.7225V42.2836H14.5859V26.7667Z" fill="white"/>
<path d="M503.989 26.8044L517.76 13.0331H590.263V0.0377197H511.281L489.441 21.8777V55.3167H576.452V70.8336L562.681 84.5661H490.217V97.6003H569.198L591 75.7602V42.3213H503.989V26.8044Z" fill="white"/>
<path d="M158.507 42.2833H122.12V55.2787H158.507V42.2833Z" fill="white"/>
<path d="M456.236 97.6003V34.0973L435.21 13.0331H391.53V97.6003H376.983V34.0973L355.958 13.0331H312.278V97.6003H297.73V0.0377197H362.436L376.983 14.5848V0.0377197H441.689L470.822 29.1707V97.6003H456.236Z" fill="white"/>
</g>
</svg>
