<svg width="584" height="98" viewBox="0 0 584 98" fill="none" xmlns="http://www.w3.org/2000/svg">
<g opacity="0.75">
<path d="M14.5471 26.7666L28.3184 12.9953H100.821V0H21.8401L0 21.8401V55.279H87.0111V70.7571L73.2786 84.5283H0.775846V97.5237H79.7569L101.558 75.6837V42.2447H14.5471V26.7666Z" fill="white"/>
<path d="M158.507 42.2445H122.12V55.2399H158.507V42.2445Z" fill="white"/>
<path d="M383.538 16.4093L367.168 0.0389404H302.075L285.627 16.4869H305.1L308.553 13.0344H360.69L368.991 21.336V32.5469H299.786L281.941 50.3914V79.7571L299.786 97.6016H365.694L374.073 89.2225L382.452 97.6016H401.926L383.5 79.1753V16.4481L383.538 16.4093ZM359.216 84.5674H306.264L296.527 74.8305V55.3179L306.264 45.5812H368.991V74.8305L359.254 84.5674H359.216Z" fill="white"/>
<path d="M568.772 0.0389404V63.5032L547.746 84.5673H504.066V0.0389404H489.519V63.5032L468.494 84.5673H424.814V0.0389404H410.267V97.5628H474.972L489.519 83.0157V97.5628H554.225L583.319 68.4686V0.0389404H568.772Z" fill="white"/>
<path d="M272.828 97.5628H200.868L179.028 75.7227V0.0389404H193.575V70.7961L207.347 84.5673H272.828V97.5628Z" fill="white"/>
</g>
</svg>
