<svg width="708" height="137" viewBox="0 0 708 137" fill="none" xmlns="http://www.w3.org/2000/svg">
<path d="M271.056 37.5346L290.34 18.2513H382.031V0H281.268L250.687 30.6361V106.031L281.268 136.613H382.031V118.416H290.34L271.056 99.1326V37.5346Z" fill="white"/>
<path d="M677.418 0H565.738V136.559H677.418L708 105.977V30.6361L677.418 0ZM687.63 99.1326L668.347 118.416H586.162V18.2513H668.347L687.63 37.5346V99.1326Z" fill="white"/>
<path d="M20.3697 37.4803L39.653 18.197H141.176V0H30.5817L0 30.5817V77.4049H121.838V99.0783L102.609 118.362H1.08638V136.559H111.68L142.262 106.031V59.208H20.3697V37.4803Z" fill="white"/>
<path d="M221.946 59.2078H170.995V77.4047H221.946V59.2078Z" fill="white"/>
<path d="M514.352 0H426.68L399.412 27.2683V109.29L426.68 136.559H514.352L541.62 109.29V27.3226L514.352 0ZM521.304 77.4593V102.446L505.335 118.416H435.86L419.89 102.446V34.2211L435.86 18.2513H505.335L521.304 34.2211V77.4049V77.4593Z" fill="white"/>
</svg>
